<svg xmlns="http://www.w3.org/2000/svg" width="500" height="220" viewBox="0 0 500 220">
  <defs><style>
    .t,.ttl{font-family:-apple-system, BlinkMacSystemFont, "Segoe UI", Helvetica, Arial, sans-serif;}
    .t{fill:#374151;font-size:12px;}
    .ttl{fill:#111827;font-size:15px;font-weight:600;}
    @media(prefers-color-scheme:dark){
      .t{fill:#d1d5db;} .ttl{fill:#f3f4f6;}
    }
  </style></defs>
  <text x="20" y="22" class="ttl">Top Languages by Commit</text>
  <path d="M385.000,29.000A88,88,0,0,1,468.959,143.359L437.475,133.475A55,55,0,0,0,385.000,62.000Z" fill="#3b82f6"/>
  <path d="M468.241,145.548A88,88,0,0,1,352.395,198.737L364.622,168.086A55,55,0,0,0,437.025,134.843Z" fill="#f59e0b"/>
  <path d="M350.266,197.855A88,88,0,0,1,298.285,131.982L330.803,126.364A55,55,0,0,0,363.292,167.535Z" fill="#10b981"/>
  <path d="M297.922,129.707A88,88,0,0,1,298.752,99.528L331.095,106.080A55,55,0,0,0,330.576,124.942Z" fill="#ef4444"/>
  <path d="M299.239,97.276A88,88,0,0,1,310.406,70.312L338.379,87.820A55,55,0,0,0,331.399,104.673Z" fill="#8b5cf6"/>
  <path d="M311.654,68.375A88,88,0,0,1,330.784,47.685L351.115,73.678A55,55,0,0,0,339.159,86.610Z" fill="#ec4899"/>
  <path d="M332.617,46.289A88,88,0,0,1,350.024,36.249L363.140,66.531A55,55,0,0,0,352.261,72.806Z" fill="#14b8a6"/>
  <path d="M352.150,35.361A88,88,0,0,1,365.516,31.184L372.823,63.365A55,55,0,0,0,364.469,65.976Z" fill="#f97316"/>
  <path d="M367.770,30.703A88,88,0,0,1,382.696,29.030L383.560,62.019A55,55,0,0,0,374.231,63.065Z" fill="#6b7280"/>
  <rect x="20" y="34" width="12" height="12" rx="2" fill="#3b82f6"/><text x="37" y="45" font-size="12" class="t">JavaScript  30.3%</text>
  <rect x="20" y="53" width="12" height="12" rx="2" fill="#f59e0b"/><text x="37" y="64" font-size="12" class="t">Markdown  26.2%</text>
  <rect x="20" y="72" width="12" height="12" rx="2" fill="#10b981"/><text x="37" y="83" font-size="12" class="t">C#  16.2%</text>
  <rect x="20" y="91" width="12" height="12" rx="2" fill="#ef4444"/><text x="37" y="102" font-size="12" class="t">HTML  5.9%</text>
  <rect x="20" y="110" width="12" height="12" rx="2" fill="#8b5cf6"/><text x="37" y="121" font-size="12" class="t">Java  5.7%</text>
  <rect x="20" y="129" width="12" height="12" rx="2" fill="#ec4899"/><text x="37" y="140" font-size="12" class="t">CSS  5.5%</text>
  <rect x="20" y="148" width="12" height="12" rx="2" fill="#14b8a6"/><text x="37" y="159" font-size="12" class="t">TypeScript  4.1%</text>
  <rect x="20" y="167" width="12" height="12" rx="2" fill="#f97316"/><text x="37" y="178" font-size="12" class="t">YAML  3.0%</text>
  <rect x="20" y="186" width="12" height="12" rx="2" fill="#6b7280"/><text x="37" y="197" font-size="12" class="t">Other  3.1%</text>
</svg>