<svg xmlns="http://www.w3.org/2000/svg" width="500" height="220" viewBox="0 0 500 220">
  <defs><style>
    .t,.ttl{font-family:-apple-system, BlinkMacSystemFont, "Segoe UI", Helvetica, Arial, sans-serif;}
    .t{fill:#374151;font-size:12px;}
    .ttl{fill:#111827;font-size:15px;font-weight:600;}
    @media(prefers-color-scheme:dark){
      .t{fill:#d1d5db;} .ttl{fill:#f3f4f6;}
    }
  </style></defs>
  <text x="20" y="22" class="ttl">Top Languages by Commit</text>
  <path d="M385.000,29.000A88,88,0,0,1,433.964,190.120L415.602,162.700A55,55,0,0,0,385.000,62.000Z" fill="#3b82f6"/>
  <path d="M432.033,191.377A88,88,0,0,1,328.389,184.374L349.618,159.109A55,55,0,0,0,414.396,163.485Z" fill="#f59e0b"/>
  <path d="M326.645,182.869A88,88,0,0,1,297.394,108.683L330.246,111.802A55,55,0,0,0,348.528,158.168Z" fill="#10b981"/>
  <path d="M297.642,106.393A88,88,0,0,1,312.881,66.574L339.925,85.484A55,55,0,0,0,330.401,110.370Z" fill="#ef4444"/>
  <path d="M314.225,64.703A88,88,0,0,1,337.220,43.101L355.138,70.813A55,55,0,0,0,340.766,84.314Z" fill="#8b5cf6"/>
  <path d="M339.171,41.875A88,88,0,0,1,357.638,33.362L367.899,64.726A55,55,0,0,0,356.357,70.047Z" fill="#ec4899"/>
  <path d="M359.837,32.674A88,88,0,0,1,368.650,30.532L374.781,62.958A55,55,0,0,0,369.273,64.296Z" fill="#14b8a6"/>
  <path d="M370.884,30.140A88,88,0,0,1,377.636,29.309L380.398,62.193A55,55,0,0,0,376.177,62.712Z" fill="#f97316"/>
  <path d="M379.333,29.183A88,88,0,0,1,383.866,29.007L384.291,62.005A55,55,0,0,0,381.458,62.114Z" fill="#6b7280"/>
  <rect x="20" y="34" width="12" height="12" rx="2" fill="#3b82f6"/><text x="37" y="45" font-size="12" class="t">TypeScript  41.0%</text>
  <rect x="20" y="53" width="12" height="12" rx="2" fill="#f59e0b"/><text x="37" y="64" font-size="12" class="t">JavaScript  20.5%</text>
  <rect x="20" y="72" width="12" height="12" rx="2" fill="#10b981"/><text x="37" y="83" font-size="12" class="t">Python  15.4%</text>
  <rect x="20" y="91" width="12" height="12" rx="2" fill="#ef4444"/><text x="37" y="102" font-size="12" class="t">Dart  8.2%</text>
  <rect x="20" y="110" width="12" height="12" rx="2" fill="#8b5cf6"/><text x="37" y="121" font-size="12" class="t">CSS  6.2%</text>
  <rect x="20" y="129" width="12" height="12" rx="2" fill="#ec4899"/><text x="37" y="140" font-size="12" class="t">HTML  4.1%</text>
  <rect x="20" y="148" width="12" height="12" rx="2" fill="#14b8a6"/><text x="37" y="159" font-size="12" class="t">Shell  2.1%</text>
  <rect x="20" y="167" width="12" height="12" rx="2" fill="#f97316"/><text x="37" y="178" font-size="12" class="t">YAML  1.5%</text>
  <rect x="20" y="186" width="12" height="12" rx="2" fill="#6b7280"/><text x="37" y="197" font-size="12" class="t">Other  1.0%</text>
</svg>