<svg xmlns="http://www.w3.org/2000/svg" width="500" height="220" viewBox="0 0 500 220">
  <defs><style>
    .t,.ttl{font-family:-apple-system, BlinkMacSystemFont, "Segoe UI", Helvetica, Arial, sans-serif;}
    .t{fill:#374151;font-size:12px;}
    .ttl{fill:#111827;font-size:15px;font-weight:600;}
    @media(prefers-color-scheme:dark){
      .t{fill:#d1d5db;} .ttl{fill:#f3f4f6;}
    }
  </style></defs>
  <text x="20" y="22" class="ttl">Top Languages by Commit</text>
  <path d="M385.000,29.000A88,88,0,0,1,469.954,139.951L438.097,131.344A55,55,0,0,0,385.000,62.000Z" fill="#3b82f6"/>
  <path d="M469.325,142.167A88,88,0,0,1,356.014,200.089L366.884,168.931A55,55,0,0,0,437.703,132.729Z" fill="#f59e0b"/>
  <path d="M353.849,199.302A88,88,0,0,1,299.205,136.575L331.378,129.235A55,55,0,0,0,365.531,168.439Z" fill="#10b981"/>
  <path d="M298.722,134.323A88,88,0,0,1,297.901,104.437L330.563,109.148A55,55,0,0,0,331.076,127.827Z" fill="#ef4444"/>
  <path d="M298.260,102.162A88,88,0,0,1,308.234,73.977L337.021,90.111A55,55,0,0,0,330.788,107.726Z" fill="#8b5cf6"/>
  <path d="M309.386,71.983A88,88,0,0,1,328.047,49.915L349.405,75.072A55,55,0,0,0,337.741,88.864Z" fill="#ec4899"/>
  <path d="M329.823,48.447A88,88,0,0,1,349.380,36.531L362.738,66.707A55,55,0,0,0,350.514,74.154Z" fill="#14b8a6"/>
  <path d="M351.499,35.626A88,88,0,0,1,364.686,31.377L372.304,63.485A55,55,0,0,0,364.062,66.141Z" fill="#f97316"/>
  <path d="M366.935,30.874A88,88,0,0,1,382.696,29.030L383.560,62.019A55,55,0,0,0,373.709,63.171Z" fill="#6b7280"/>
  <rect x="20" y="34" width="12" height="12" rx="2" fill="#3b82f6"/><text x="37" y="45" font-size="12" class="t">JavaScript  29.6%</text>
  <rect x="20" y="53" width="12" height="12" rx="2" fill="#f59e0b"/><text x="37" y="64" font-size="12" class="t">Markdown  26.1%</text>
  <rect x="20" y="72" width="12" height="12" rx="2" fill="#10b981"/><text x="37" y="83" font-size="12" class="t">C#  16.1%</text>
  <rect x="20" y="91" width="12" height="12" rx="2" fill="#ef4444"/><text x="37" y="102" font-size="12" class="t">HTML  5.9%</text>
  <rect x="20" y="110" width="12" height="12" rx="2" fill="#8b5cf6"/><text x="37" y="121" font-size="12" class="t">CSS  5.9%</text>
  <rect x="20" y="129" width="12" height="12" rx="2" fill="#ec4899"/><text x="37" y="140" font-size="12" class="t">Java  5.7%</text>
  <rect x="20" y="148" width="12" height="12" rx="2" fill="#14b8a6"/><text x="37" y="159" font-size="12" class="t">TypeScript  4.6%</text>
  <rect x="20" y="167" width="12" height="12" rx="2" fill="#f97316"/><text x="37" y="178" font-size="12" class="t">YAML  2.9%</text>
  <rect x="20" y="186" width="12" height="12" rx="2" fill="#6b7280"/><text x="37" y="197" font-size="12" class="t">Other  3.3%</text>
</svg>