<svg xmlns="http://www.w3.org/2000/svg" width="500" height="220" viewBox="0 0 500 220">
  <defs><style>
    .t,.ttl{font-family:-apple-system, BlinkMacSystemFont, "Segoe UI", Helvetica, Arial, sans-serif;}
    .t{fill:#374151;font-size:12px;}
    .ttl{fill:#111827;font-size:15px;font-weight:600;}
    @media(prefers-color-scheme:dark){
      .t{fill:#d1d5db;} .ttl{fill:#f3f4f6;}
    }
  </style></defs>
  <text x="20" y="22" class="ttl">Top Languages by Commit</text>
  <path d="M385.000,29.000A88,88,0,0,1,469.855,140.316L438.034,131.573A55,55,0,0,0,385.000,62.000Z" fill="#3b82f6"/>
  <path d="M469.215,142.530A88,88,0,0,1,354.604,199.584L366.002,168.615A55,55,0,0,0,437.635,132.956Z" fill="#f59e0b"/>
  <path d="M352.452,198.760A88,88,0,0,1,298.622,133.818L331.014,127.511A55,55,0,0,0,364.658,168.100Z" fill="#10b981"/>
  <path d="M298.211,131.551A88,88,0,0,1,298.433,101.182L330.896,107.114A55,55,0,0,0,330.757,126.094Z" fill="#ef4444"/>
  <path d="M298.877,98.921A88,88,0,0,1,310.151,70.722L338.220,88.076A55,55,0,0,0,331.173,105.701Z" fill="#8b5cf6"/>
  <path d="M311.388,68.778A88,88,0,0,1,331.348,47.247L351.467,73.405A55,55,0,0,0,338.993,86.861Z" fill="#ec4899"/>
  <path d="M333.192,45.867A88,88,0,0,1,350.795,35.920L363.622,66.325A55,55,0,0,0,352.620,72.542Z" fill="#14b8a6"/>
  <path d="M352.930,35.052A88,88,0,0,1,364.424,31.439L372.140,63.525A55,55,0,0,0,364.956,65.782Z" fill="#f97316"/>
  <path d="M366.670,30.930A88,88,0,0,1,382.696,29.030L383.560,62.019A55,55,0,0,0,373.544,63.206Z" fill="#6b7280"/>
  <rect x="20" y="34" width="12" height="12" rx="2" fill="#3b82f6"/><text x="37" y="45" font-size="12" class="t">JavaScript  29.7%</text>
  <rect x="20" y="53" width="12" height="12" rx="2" fill="#f59e0b"/><text x="37" y="64" font-size="12" class="t">Markdown  26.3%</text>
  <rect x="20" y="72" width="12" height="12" rx="2" fill="#10b981"/><text x="37" y="83" font-size="12" class="t">C#  16.3%</text>
  <rect x="20" y="91" width="12" height="12" rx="2" fill="#ef4444"/><text x="37" y="102" font-size="12" class="t">CSS  5.9%</text>
  <rect x="20" y="110" width="12" height="12" rx="2" fill="#8b5cf6"/><text x="37" y="121" font-size="12" class="t">HTML  5.9%</text>
  <rect x="20" y="129" width="12" height="12" rx="2" fill="#ec4899"/><text x="37" y="140" font-size="12" class="t">Java  5.8%</text>
  <rect x="20" y="148" width="12" height="12" rx="2" fill="#14b8a6"/><text x="37" y="159" font-size="12" class="t">TypeScript  4.1%</text>
  <rect x="20" y="167" width="12" height="12" rx="2" fill="#f97316"/><text x="37" y="178" font-size="12" class="t">YAML  2.6%</text>
  <rect x="20" y="186" width="12" height="12" rx="2" fill="#6b7280"/><text x="37" y="197" font-size="12" class="t">Other  3.3%</text>
</svg>