<svg xmlns="http://www.w3.org/2000/svg" width="500" height="220" viewBox="0 0 500 220">
  <defs><style>
    .t,.ttl{font-family:-apple-system, BlinkMacSystemFont, "Segoe UI", Helvetica, Arial, sans-serif;}
    .t{fill:#374151;font-size:12px;}
    .ttl{fill:#111827;font-size:15px;font-weight:600;}
    @media(prefers-color-scheme:dark){
      .t{fill:#d1d5db;} .ttl{fill:#f3f4f6;}
    }
  </style></defs>
  <text x="20" y="22" class="ttl">Top Languages by Commit</text>
  <path d="M385.000,29.000A88,88,0,0,1,469.166,142.691L437.604,133.057A55,55,0,0,0,385.000,62.000Z" fill="#3b82f6"/>
  <path d="M468.465,144.886A88,88,0,0,1,351.228,198.261L363.892,167.788A55,55,0,0,0,437.166,134.429Z" fill="#f59e0b"/>
  <path d="M349.112,197.350A88,88,0,0,1,297.808,128.899L330.505,124.437A55,55,0,0,0,362.570,167.218Z" fill="#10b981"/>
  <path d="M297.527,126.613A88,88,0,0,1,299.586,95.825L331.616,103.765A55,55,0,0,0,330.329,123.008Z" fill="#ef4444"/>
  <path d="M300.169,93.596A88,88,0,0,1,312.862,66.600L339.914,85.500A55,55,0,0,0,331.981,102.372Z" fill="#8b5cf6"/>
  <path d="M314.206,64.729A88,88,0,0,1,334.878,44.669L353.674,71.793A55,55,0,0,0,340.754,84.331Z" fill="#ec4899"/>
  <path d="M336.788,43.382A88,88,0,0,1,351.300,35.709L363.937,66.193A55,55,0,0,0,354.868,70.989Z" fill="#14b8a6"/>
  <path d="M353.439,34.854A88,88,0,0,1,365.166,31.264L372.604,63.415A55,55,0,0,0,365.275,65.659Z" fill="#f97316"/>
  <path d="M367.417,30.774A88,88,0,0,1,382.696,29.030L383.560,62.019A55,55,0,0,0,374.011,63.109Z" fill="#6b7280"/>
  <rect x="20" y="34" width="12" height="12" rx="2" fill="#3b82f6"/><text x="37" y="45" font-size="12" class="t">JavaScript  30.1%</text>
  <rect x="20" y="53" width="12" height="12" rx="2" fill="#f59e0b"/><text x="37" y="64" font-size="12" class="t">Markdown  26.6%</text>
  <rect x="20" y="72" width="12" height="12" rx="2" fill="#10b981"/><text x="37" y="83" font-size="12" class="t">C#  16.6%</text>
  <rect x="20" y="91" width="12" height="12" rx="2" fill="#ef4444"/><text x="37" y="102" font-size="12" class="t">HTML  6.0%</text>
  <rect x="20" y="110" width="12" height="12" rx="2" fill="#8b5cf6"/><text x="37" y="121" font-size="12" class="t">Java  5.8%</text>
  <rect x="20" y="129" width="12" height="12" rx="2" fill="#ec4899"/><text x="37" y="140" font-size="12" class="t">CSS  5.6%</text>
  <rect x="20" y="148" width="12" height="12" rx="2" fill="#14b8a6"/><text x="37" y="159" font-size="12" class="t">TypeScript  3.4%</text>
  <rect x="20" y="167" width="12" height="12" rx="2" fill="#f97316"/><text x="37" y="178" font-size="12" class="t">YAML  2.6%</text>
  <rect x="20" y="186" width="12" height="12" rx="2" fill="#6b7280"/><text x="37" y="197" font-size="12" class="t">Other  3.2%</text>
</svg>