<svg xmlns="http://www.w3.org/2000/svg" width="500" height="220" viewBox="0 0 500 220">
  <defs><style>
    .t,.ttl{font-family:-apple-system, BlinkMacSystemFont, "Segoe UI", Helvetica, Arial, sans-serif;}
    .t{fill:#374151;font-size:12px;}
    .ttl{fill:#111827;font-size:15px;font-weight:600;}
    @media(prefers-color-scheme:dark){
      .t{fill:#d1d5db;} .ttl{fill:#f3f4f6;}
    }
  </style></defs>
  <text x="20" y="22" class="ttl">Top Languages by Commit</text>
  <path d="M385.000,29.000A88,88,0,0,1,469.490,141.606L437.806,132.379A55,55,0,0,0,385.000,62.000Z" fill="#3b82f6"/>
  <path d="M468.817,143.809A88,88,0,0,1,354.644,199.599L366.028,168.624A55,55,0,0,0,437.386,133.756Z" fill="#f59e0b"/>
  <path d="M352.492,198.776A88,88,0,0,1,298.927,135.313L331.204,128.445A55,55,0,0,0,364.683,168.110Z" fill="#10b981"/>
  <path d="M298.477,133.053A88,88,0,0,1,299.019,98.260L331.262,105.287A55,55,0,0,0,330.923,127.033Z" fill="#ef4444"/>
  <path d="M299.539,96.016A88,88,0,0,1,310.914,69.510L338.696,87.319A55,55,0,0,0,331.587,103.885Z" fill="#8b5cf6"/>
  <path d="M312.183,67.587A88,88,0,0,1,331.269,47.308L351.418,73.442A55,55,0,0,0,339.489,86.117Z" fill="#ec4899"/>
  <path d="M333.112,45.925A88,88,0,0,1,350.363,36.103L363.352,66.440A55,55,0,0,0,352.570,72.578Z" fill="#14b8a6"/>
  <path d="M352.492,35.224A88,88,0,0,1,365.702,31.142L372.939,63.339A55,55,0,0,0,364.683,65.890Z" fill="#f97316"/>
  <path d="M367.956,30.666A88,88,0,0,1,382.696,29.030L383.560,62.019A55,55,0,0,0,374.347,63.041Z" fill="#6b7280"/>
  <rect x="20" y="34" width="12" height="12" rx="2" fill="#3b82f6"/><text x="37" y="45" font-size="12" class="t">JavaScript  29.9%</text>
  <rect x="20" y="53" width="12" height="12" rx="2" fill="#f59e0b"/><text x="37" y="64" font-size="12" class="t">Markdown  26.1%</text>
  <rect x="20" y="72" width="12" height="12" rx="2" fill="#10b981"/><text x="37" y="83" font-size="12" class="t">C#  16.1%</text>
  <rect x="20" y="91" width="12" height="12" rx="2" fill="#ef4444"/><text x="37" y="102" font-size="12" class="t">HTML  6.8%</text>
  <rect x="20" y="110" width="12" height="12" rx="2" fill="#8b5cf6"/><text x="37" y="121" font-size="12" class="t">Java  5.7%</text>
  <rect x="20" y="129" width="12" height="12" rx="2" fill="#ec4899"/><text x="37" y="140" font-size="12" class="t">CSS  5.5%</text>
  <rect x="20" y="148" width="12" height="12" rx="2" fill="#14b8a6"/><text x="37" y="159" font-size="12" class="t">TypeScript  4.0%</text>
  <rect x="20" y="167" width="12" height="12" rx="2" fill="#f97316"/><text x="37" y="178" font-size="12" class="t">YAML  2.9%</text>
  <rect x="20" y="186" width="12" height="12" rx="2" fill="#6b7280"/><text x="37" y="197" font-size="12" class="t">Other  3.1%</text>
</svg>